<svg xmlns="http://www.w3.org/2000/svg" viewBox="0 0 900 1200">
  <rect x="0" y="0" width="900" height="1200" rx="36" fill="#1f1f1f"/>
  <g fill="#d4af37">
    <rect x="30" y="60" width="55" height="35" rx="8"/>
    <rect x="30" y="135" width="55" height="35" rx="8"/>
    <rect x="30" y="210" width="55" height="35" rx="8"/>
    <rect x="30" y="285" width="55" height="35" rx="8"/>
    <rect x="30" y="360" width="55" height="35" rx="8"/>
    <rect x="30" y="435" width="55" height="35" rx="8"/>
    <rect x="30" y="510" width="55" height="35" rx="8"/>
    <rect x="30" y="585" width="55" height="35" rx="8"/>
    <rect x="30" y="660" width="55" height="35" rx="8"/>
    <rect x="30" y="735" width="55" height="35" rx="8"/>
    <rect x="30" y="810" width="55" height="35" rx="8"/>
    <rect x="30" y="885" width="55" height="35" rx="8"/>
    <rect x="815" y="60" width="55" height="35" rx="8"/>
    <rect x="815" y="135" width="55" height="35" rx="8"/>
    <rect x="815" y="210" width="55" height="35" rx="8"/>
    <rect x="815" y="285" width="55" height="35" rx="8"/>
    <rect x="815" y="360" width="55" height="35" rx="8"/>
    <rect x="815" y="435" width="55" height="35" rx="8"/>
    <rect x="815" y="510" width="55" height="35" rx="8"/>
    <rect x="815" y="585" width="55" height="35" rx="8"/>
    <rect x="815" y="660" width="55" height="35" rx="8"/>
    <rect x="815" y="735" width="55" height="35" rx="8"/>
    <rect x="815" y="810" width="55" height="35" rx="8"/>
    <rect x="815" y="885" width="55" height="35" rx="8"/>
  </g>
  <rect x="135" y="180" width="630" height="840" rx="18" fill="none" stroke="#d4af37" stroke-width="12"/>
  <line x1="135" y1="390" x2="765" y2="390" stroke="#d4af37" stroke-width="8"/>
  <line x1="135" y1="600" x2="765" y2="600" stroke="#d4af37" stroke-width="8"/>
  <line x1="135" y1="810" x2="765" y2="810" stroke="#d4af37" stroke-width="8"/>
</svg>
