<svg xmlns="http://www.w3.org/2000/svg" viewBox="0 0 900 1200">
  <defs>
    <linearGradient id="g" x1="0" x2="0" y1="0" y2="1">
      <stop offset="0%" stop-color="#1f1f1f"/>
      <stop offset="100%" stop-color="#3a3a3a"/>
    </linearGradient>
  </defs>
  <rect x="0" y="0" width="900" height="1200" fill="none"/>
  <rect x="0" y="0" width="900" height="1200" rx="36" fill="url(#g)"/>
  <rect x="108" y="144" width="684" height="912" rx="10" fill="none"/>
  <g fill="#d4af37">
    <circle cx="60" cy="100" r="20"/>
    <circle cx="60" cy="200" r="20"/>
    <circle cx="60" cy="300" r="20"/>
    <circle cx="60" cy="400" r="20"/>
    <circle cx="60" cy="500" r="20"/>
    <circle cx="60" cy="600" r="20"/>
    <circle cx="60" cy="700" r="20"/>
    <circle cx="60" cy="800" r="20"/>
    <circle cx="60" cy="900" r="20"/>
    <circle cx="60" cy="1000" r="20"/>
    <circle cx="840" cy="100" r="20"/>
    <circle cx="840" cy="200" r="20"/>
    <circle cx="840" cy="300" r="20"/>
    <circle cx="840" cy="400" r="20"/>
    <circle cx="840" cy="500" r="20"/>
    <circle cx="840" cy="600" r="20"/>
    <circle cx="840" cy="700" r="20"/>
    <circle cx="840" cy="800" r="20"/>
    <circle cx="840" cy="900" r="20"/>
    <circle cx="840" cy="1000" r="20"/>
  </g>
</svg>
